<svg xmlns="http://www.w3.org/2000/svg" viewBox="0 0 634.47 633.12">
  <defs>
    <clipPath id="clippath">
      <circle cx="318.48" cy="315.99" r="306.34" class="head-cls-5" />
    </clipPath>
    <clipPath id="clippath-1">
      <path
        d="M456.43 925.85c-2.8 3.11-2.42 4.74-8.99 5.07-39.46 1.99-59.9 1.25-99.4.5-53.99-1.02-102.12-3.27-155.95-1.08-4.17.14-3.06-1.12-4.14-5.3-8.33-32.06-17.51-65.5-23.4-98.09-2.95-16.31-7.27-38.74-11.39-60.08-3.21-16.6-5.08-22.38-7.21-35.07-.15-.88-2.48-15.08-5.94-15.08-6.44 0-5.38 7.47-9.27 7.46-25.13.07-46.84-12.42-70.15-21.08-13.63-6.28-43.21-12.12-36.51-32.42 16.4-52.7 8.12-90.21 48.72-137.7 27.28-33.48 64.74-47.96 104.59-60.9 6.01-2.09 12.03-4.19 18.04-6.27 5-2 9.1-.94 11.62 4.02 27 47.24 86.48 59.38 137.03 57.87 21.33-.6 41.79-7.15 61.81-14.07 12.96-3.74 21.87-11.1 29.16-22.34 6.68-9.09 13.21-15.5 16.34-26.04.85-2.87 2.39-2.45 6.15-1.46 24.15 6.35 61.32 16.31 78.15 25.06 10.17 5.29 21.98 17.78 30.53 29.22 29.93 40.03 39.85 80.86 46.9 130.04 3.63 27.66-3.54 33.65-29.01 41.76-23.21 6.47-48.53 23.12-72.38 23.12-4.43 0-8.06-9.6-8.06 6.84 0 8.25-1.09 17.19-2.76 25.27-5.54 26.75-4.7 27.49-7.9 43.94-3.89 20.05-2.8 15.47-12.3 57.33-2.29 10.1-4.16 21.03-13.65 46.49-3.14 8.42-5.35 18.17-8.49 26.62-.85 2.29-.47 4.52-2.12 6.35Z"
        class="head-cls-3"
      />
    </clipPath>
    <style>
      .head-cls-1{fill:#141414}.head-cls-3{fill:#fff}.head-cls-4{fill:#fabca5}.head-cls-5{stroke:#262626;stroke-miterlimit:10;stroke-width:19.3px;fill:none}.head-cls-8{fill:#25130c}.head-cls-9{fill:#d17d62}.head-cls-11{fill:#252325}.head-cls-12{fill:#e69f85}
    </style>
  </defs>
  <g style="clip-path: url(#clippath)">
    <path
      d="M475.62 474.89c-3.56 7.89-9.79 20.55-16.02 26.78-4.7 4.7-8.75 9.97-15.18 21.78-5.67 6.78-16.77 15.26-24.76 20.57-11.2 7.44-20.2 12.56-36.38 23.04-12.94 2.85-29.5 5.32-48.79 5.37a228.92 228.92 0 0 1-49.79-5.37c-11.31-6.23-33.2-15.77-42.79-23.04-9.49-7.19-17.66-16.33-23.04-23.04-4.55-5.67-11.24-18.91-16.46-26.33-5.43-7.72-10.47-15.71-16.46-23.04 14.38-5.59 84.28-26.09 87.23-29.63 6.56-7.85-4.73-55.61 6.58-59.25 34.69 23.08 71.61 20.35 105.34-3.29 4.79 4.9-3.12 53.49 1.65 60.9 2.58 4.01 74.31 28.17 88.88 34.56Z"
      class="head-cls-4"
    />
    <path
      d="M506.2 351.07c-1.24-74.19-23.81-201.01-97.79-237.17-2.49-1.22-9.03-1.53-10.49-2.25-2.03-.99-12.47-14.07-16.49-17.23-37.66-29.63-107.55-21.55-146.87 1.5-75.2 44.07-92.01 173.75-88.8 252.9.96 23.58.4 71.9 31.85 73.81h199.7l.39-.77c31.86-2.32 68.38 3.21 99.65.02 33.25-3.39 29.28-44.92 28.85-70.81Z"
      class="head-cls-1"
    />
    <path
      d="m359.48 114.22-1.12 7.12c-26.01 61.68-113.04 16.66-164.85 77.18-2.23 2.6-4.27 8.13-7.49 9.74 13.61-22.95 38.07-39.33 64.07-45.34 40.7-9.4 93.7 3.14 109.4-48.71Z"
      class="head-cls-11"
    />
    <path
      d="M218.98 189.9c36.2-29.54 104.52-10.28 131.13-44.59 6.63-8.55 9.76-19.58 14.24-29.22l-3 11.24c-23.48 60.46-96.81 31.24-142.37 62.57Zm-30.81 52.06c-2.42 2.09-3.75 5.08-5.02 7.95-1.23 2.92-2.45 5.85-3.62 8.8-2.37 5.88-4.51 11.85-6.03 17.97-3.07 12.26-3.39 25.02-3.42 37.66-.02 6.32.35 12.62 1.9 18.73 3.29 12.19 7.6 24.33 9.13 36.96.8 6.31.99 12.73.24 19.03.9-12.7-1.68-25.28-5.21-37.42-1.76-6.11-3.87-12.09-5.46-18.26-3.09-12.48-2.06-25.42-1.36-38.12.78-12.75 4.37-25.2 9.55-36.83a451.1 451.1 0 0 1 3.92-8.68c1.36-2.84 2.84-5.81 5.38-7.79Zm34.94 42.24c-4.74 4.66-2.42 11.67-.02 16.94 6.04 14.12 8.41 29.99 5.84 45.2-.51 3.03-1.27 6.02-2.16 8.94.63-3 1.26-5.99 1.57-9.03 1.12-9.06.71-18.3-1.02-27.25-1.12-5.98-2.86-11.83-5.1-17.5-2.26-5.33-4.33-12.99.89-17.29Zm36.69 74.96c.53 5.55-1.64 11.35-.12 16.76 1.05 3.92 4.99 7.21 5.18 11.58.07 1.49-.48 2.87.05 4.23-.4-.6-.51-1.37-.53-2.08.08-2.13-.47-4.09-1.63-5.89-1.43-2.35-3.41-4.58-4.26-7.51-1.57-5.81.86-11.38 1.3-17.1Zm230.76-22.52c1.88 22.32-.37 46.38-13.49 65.22-1.88 2.63-3.92 5.15-6.2 7.43 2.08-2.47 4.01-5.04 5.7-7.77 12.28-19.18 14.3-42.64 13.99-64.89Zm-81.96-5.8c-7.38 1.25-6.99 10.08-6.94 15.89-.03 4.12-.06 15.2-.07 19.46.01 3.23-.02 9.76-.06 12.99-.23-2.16-.38-4.32-.55-6.48-.38-6.3-.63-13.21-.58-19.49.08-4.36.01-8.66.44-13.02.33-4.2 3-9.34 7.76-9.35Zm29.95-51.35c-.43-.29-.93-.02-1.16.35-.84 1.15-.6 2.65-.76 4.02-.43 5.53-.56 11.26 1.38 16.51 2.14 5.29 2.92 11.11 2.29 16.8-.19 1.88-.41 3.75-.71 5.61.02-1.89.12-3.77.11-5.64.22-5.65-.74-11.12-2.85-16.38-1.99-5.42-1.67-11.36-.81-16.97.35-1.49.16-3.74 1.83-4.47.25-.06.5.02.68.16Z"
      class="head-cls-11"
    />
    <path
      id="Objet_génératif"
      d="M386.16 357.38v37.31l-110.98 19.35c.02-7.88.52-41.91.54-49.79 33.72 15.13 80.88 14.19 110.44-6.87Z"
      class="head-cls-12"
    />
    <path
      d="M236.52 228.81c-1.19 2.25-1.69 4.81-1.98 7.34-.21 1.83-.32 3.7.03 5.52.3 1.57.93 3.04 1.55 4.51 2.11 4.94 4.24 9.93 7.38 14.29 6.93 9.61 18.52 14.98 30.36 15.34 1.53.05 3.11-.11 4.63-.29 7.78-.92 14.88-5.08 19.67-11.28 4.79-6.2 9.1-13.26 10.61-20.94.57-2.91.03-6.87-1.92-9.11-1.19-1.36-3.35-2.7-5.06-3.29-8.43-2.92-17.4-4.72-26.24-5.89-3.87-.51-7.43-1.37-11.13-1.74-4.86-.49-9.64-.63-14.51-.99-5.18-.38-10.86 1.71-13.4 6.53Z"
      style="fill: none"
    />
    <path
      d="M227.28 300.3s-1.64-4.23-2.69-7.96c-3.65 1.7-8.99.18-13.39-3.81-6.64-3.66-12.67-13.31-14.46-19.16-.36-1.17-.65-3.19-.83-4.48-2.36-16.74 10.57-23.89 24.46-15.06l.03-19.11 6.13-13.23c47.37-33.6 124.24-14.78 159.57-66.2 17.49 19.11 36.05 36.61 40.12 63.73l2.48 12.7 3.29 16.43c5.22-3.66 12.31-3.41 16.88 1.19.36.37 1.47 1.38 1.53 1.47 6.72 10.84-1.72 35.22-14.07 40.31-2.18 1.81-2.37 1.35-4.15 2.57-1.45.99-2.99 1.67-4.52 2.07l-4.03 10.04c-47.46 93.44-97.02 85.74-97.02 85.74s-47.77 10.32-99.34-87.24Z"
      class="head-cls-4"
    />
    <path
      d="M264.32 233.8c11.87-1.73 31.22.65 32.6 15.36-.89 1.68-11.2-8.23-13.11-8.62.61 14-17.63 12.69-15.74-1.5-9.22 2.74-7.62 12.99-16.86 2.62 2.1-4.26 8.58-7.21 13.11-7.87Zm111.65-1.5c8.13-.59 18.04 2.53 23.6 8.62-8.84 10.34-6.92-.24-16.11-1.87-1.21.15 1.18 9.81-5.99 11.24-6.54 1.31-10.21-3.66-9.74-9.74-3.28.56-11.44 11.82-13.11 7.87-2.8-6.62 15.93-15.71 21.36-16.11Zm-75.76-23.73c4.54 5.46.41 8.62-5.31 8.65-9.78.4-19.67-2.4-29.47-1.79-5.61-.07-16.03 6.49-20.54 2.76-.91-2.85 6.35-5.88 8.45-7.26 8.84-4.87 19.72-4.96 29.68-5.21 6.32-.1 13.22-.28 18.43 3.8m51.11-1.95c-3.53 2.15-5.06 6.34-1.37 8.69 2.18 1.37 5.22 1.6 7.82 1.62 7.56-.03 15.15-2 22.64-1.26 3.42.29 6.76 1.11 10.06 2.01 2.86.83 8.27 2.17 10.12.06.65-.75.47-1.83-.45-2.88-1.86-2.1-5.28-3.23-7.99-4.2-12.26-3.96-28.24-10.29-40.63-4.17l-.2.13Z"
      class="head-cls-1"
    />
    <path
      d="M440.28 252.1c13.16-1.97 6.98 18.54 5.25 17.98 4.89-15.44-.45-22.5-13.86-10.87.97-2.6 6.14-6.75 8.62-7.12Z"
      class="head-cls-8"
    />
    <path
      d="M204.38 254.26c6.76-2.24 13.52 5.75 14.61 11.61-3.19-1.85-4.08-7.43-7.87-9.37-11.54-5.92-9.13 8.83-6.74 15.74-3.97-3.16-5-16.33 0-17.98Z"
      style="fill: #3c2820"
    />
    <path
      d="M428.82 223.09c-.54-2-1.22-3.9-1.38-5.96-24.37-5.37-49.73-.89-74.21 3.96-5.69 1.13-11.4 2.28-17.18 2.79-27.37 2.43-54.28-9.43-81.75-8.64-10.38.3-20.88 2.39-31.04.25-.38 1.21-.89 2.42-1.27 3.63-.92 2.94-1.42 6.17-1.37 9.25 9.99 9.78 11.51 25.44 19.87 36.65 6.23 8.37 16.28 13.77 26.7 14.35 4.11.23 8.23-.26 12.25-1.12 9.38-2.02 18.65-6.44 24.29-14.2 2.74-3.78 4.88-7.85 7.02-12 1.23-2.38 2.47-4.77 3.7-7.15 2.18-4.21 5.12-8.96 9.85-9.34 3.72-.3 7.01 2.32 9.56 5.05 2.03 2.16 3.88 4.5 5.32 7.09 2.77 5 3.92 10.86 7.29 15.48 1.46 2 3.28 3.7 5.09 5.38 3.72 3.46 7.57 7 12.33 8.8 3.18 1.2 6.62 1.55 10.01 1.77 6.62.44 13.4.4 19.7-1.67 9.19-3.02 16.62-10.23 21.31-18.69 5.31-9.59 7.51-21.27 14.92-29.34.34-2.13-.43-4.25-1-6.34Zm-139.98 46.19a37.292 37.292 0 0 1-38.22-1.5c-12.85-8.38-29.4-44.6-5.25-47.96 9.8-1.36 53.01 4.32 59.95 10.49 10.06 8.94-6.67 33.62-16.49 38.97Zm111.53-.61a37.292 37.292 0 0 1-38.22 1.5c-9.81-5.35-26.55-30.02-16.49-38.97 6.94-6.17 50.15-11.85 59.95-10.49 24.16 3.36 7.6 39.58-5.25 47.96Z"
      style="fill: #c12525"
    />
    <path
      d="M387.23 297.91c1.37.04 8.54 1.69 9.35 2.64 7.4 8.65-14.71 12.72-21.33 7.91-9.27-6.73 7.08-10.67 11.98-10.55Zm-123.17.85c16.97-1.94 17.07 13.26 1.94 13.59-13.44.3-17.7-11.79-1.94-13.59Z"
      class="head-cls-12"
      style="opacity: 0.5"
    />
    <path
      d="m319.54 243.41-4.87 53.58c2.15 5.58 18.44-.47 19.11 4.87-7.12-1.75-16.81 3.42-21.36-4.87l7.12-53.58Z"
      class="head-cls-1"
    />
    <path
      d="M357.25 333.77c-20.03 16.48-43.61 18.51-62.02-1.1 18.13 7.09 43.27 4.41 62.02 1.1Z"
      class="head-cls-9"
    />
    <path
      d="M357.25 333.77c-13.07 2.73-17.21 4.36-31.95 4.36-18.04 0-23.19-5.63-30.69-6.1-.78-1.73-1.71-1.83.43-3.48 13.65 3.31 15.8-.87 30.9-.87 12.57 0 19.43 4.97 23.04 5.22 3.55.25 11.43-4.98 8.26.87Z"
      class="head-cls-9"
    />
    <path
      d="M357.25 333.73c-.42.8-1.77 1.54-2.67 2.1-18.75 2.92-39.23 4-57.35-2.26-.18-.11-2.06-.45-2.61-1.54 7.79.08 12.58 2.76 20.34 3.33 6.69.49 29.23.78 42.3-1.63Z"
      class="head-cls-8"
    />
    <path
      d="M275.36 427.06c11.64 4.28 28.75 9.28 50.89 9.62 26.41.41 46.49-5.99 58.92-10.88.08-11.05.97-22.09 1.04-33.14l-84.63 14.14c-8.83 1.88-17.66 3.76-26.48 5.64M36.28 688.85c-.22.19-1.1.44-1.38.79-1.21 1.49-1.62 4.48-2.29 6.29-4.29 11.59-6.93 25.8-8.88 38.02-1.78 11.18-5.43 23.83-10.74 34.02-2.87-1.13-5.56-5.85-7.42-8.35-2.5-3.37-4.83-6.85-7.12-10.36-12.5-19.17-24.15-39.43-34.65-59.96-10.58-20.67-19.7-41.98-31.15-62.21-3.41-6.02-6.98-11.94-10.77-17.73 1.8-8.68 3.12-17.27 1.41-25.97-1.1-5.57-3.6-10.77-6.44-15.68-4.22-7.28-9.25-14.09-14.98-20.26-4.75-5.12-10.9-10.25-13.43-16.92-2.88-7.61-4.71-15.59-5.84-23.64-.98-6.96-.67-13.07-5.11-18.97-3.02-4.02-6.1-7.24-11.13-7.1-9.58.26-11.65 7.67-13.47 15.78-1.73 7.73-1.48 33.56 7.53 45.39-7.25-.08-14.4 1.29-21.19 3.85-5.2 1.96-9.88 5.07-14.51 8.15-4.1 2.73-8.47 5.8-10.02 10.48-1.46 4.41-.07 9.19 1.32 13.62-6.5 2.23-8.36 10.56-7.99 17.42.28 5.22 1.81 11.18 6.55 13.37.81 3.14-1.83 6.35-3.24 9.28-2.55 5.28-.69 12.29 4.14 15.61 1.96 1.35 4.37 2.19 5.74 4.14 1.46 2.07 1.32 4.82 1.58 7.34.54 5.29 3.38 10.59 8.17 12.89 3.24 1.56 6.97 1.62 10.56 1.65 10.36.09 21.59.14 31.95.23 1.62 6.68 3.16 13.01 4.87 18.66 2.06 6.83 4.21 14.1 6.87 20.71 1.49 4.08 4.64 11.46 6.4 15.86 2.04 5.09 3.97 10.22 6.06 15.29 4.38 10.63 9.07 21.12 14.06 31.48 8.68 18.02 18.66 35.36 28.55 52.73 5.6 9.83 11.11 20.25 16.6 30.36 6.74 12.4 13.04 25.71 23.93 35.32 10.57 9.32 23.83 15.93 37.9 17.6 14.64 1.74 29.17-2.74 39.5-13.44 18.26-18.91 23.75-46.42 33.4-70 3.64-8.88 7.4-17.72 11.28-26.5 1.99-4.5 4.24-8.93 6.08-13.49 1.5-3.72 3.26-9.28 4.13-11.81 5.05-13.91 11.17-27.01 17.08-40.17 1.25-2.79-5.69-7.99-10.1-10.04-4.96-2.3-8.69-2.85-13.65-5.15-6.19-2.87-16.02-5.1-22.39-7.56-16.63-6.41-27.62-11.58-45.3-11.51-1.81 0-1.81-.09-2.49.48Z"
      class="head-cls-4"
    />
    <path
      d="M456.43 925.85c-2.8 3.11-2.42 4.74-8.99 5.07-39.46 1.99-59.9 1.25-99.4.5-53.99-1.02-102.12-3.27-155.95-1.08-4.17.14-3.06-1.12-4.14-5.3-8.33-32.06-17.51-65.5-23.4-98.09-2.95-16.31-7.27-38.74-11.39-60.08-3.21-16.6-5.08-22.38-7.21-35.07-.15-.88-2.48-15.08-5.94-15.08-6.44 0-5.38 7.47-9.27 7.46-25.13.07-46.84-12.42-70.15-21.08-13.63-6.28-43.21-12.12-36.51-32.42 16.4-52.7 8.12-90.21 48.72-137.7 27.28-33.48 64.74-47.96 104.59-60.9 6.01-2.09 12.03-4.19 18.04-6.27 5-2 9.1-.94 11.62 4.02 27 47.24 86.48 59.38 137.03 57.87 21.33-.6 41.79-7.15 61.81-14.07 12.96-3.74 21.87-11.1 29.16-22.34 6.68-9.09 13.21-15.5 16.34-26.04.85-2.87 2.39-2.45 6.15-1.46 24.15 6.35 61.32 16.31 78.15 25.06 10.17 5.29 21.98 17.78 30.53 29.22 29.93 40.03 39.85 80.86 46.9 130.04 3.63 27.66-3.54 33.65-29.01 41.76-23.21 6.47-48.53 23.12-72.38 23.12-4.43 0-8.06-9.6-8.06 6.84 0 8.25-1.09 17.19-2.76 25.27-5.54 26.75-4.7 27.49-7.9 43.94-3.89 20.05-2.8 15.47-12.3 57.33-2.29 10.1-4.16 21.03-13.65 46.49-3.14 8.42-5.35 18.17-8.49 26.62-.85 2.29-.47 4.52-2.12 6.35Z"
      class="head-cls-3"
    />
    <g style="clip-path: url(#clippath-1)">
      <path
        d="m633.19 492.43-150.46 24.03H175.51l-162.8-26.15 6.21-22.12 162.86 24.07h295.14l156.27-20.12v20.29zm0 52.94-142.81 19.41H170.34L12.71 550.39v-22.87l164.27 13.06h309.35l146.86-15.13v19.92zm0 49.43-135.8 18.3H155.95L27.33 597.94l1.52-25.19 135.96 16.14h326.68l141.7-12.9v18.81zm0 46.12-127.31 20.49H145.9L12.71 638.34l3.4-21.34 133.11 20.21h348.91l135.06-16.95v20.66z"
        style="fill: #2a4b84"
      />
    </g>
  </g>
  <circle cx="318.48" cy="315.99" r="306.34" class="head-cls-5" />
</svg>